<svg xmlns="http://www.w3.org/2000/svg" viewBox="0 0 32 32" fill="none">
  <rect width="32" height="32" rx="8" fill="#0c6b52"/>
  <path fill="#fff" d="M13.5 5.8 5.2 13.4h2.3V25h4.2v-5h3.6v5h4.2V13.4h2.3L13.5 5.8Z"/>
  <circle cx="23.4" cy="23.2" r="7.1" fill="#fff"/>
  <g transform="translate(18.85 17.45) scale(.38)">
    <path fill="#0c6b52" d="M14.7 6.3a1 1 0 0 0 0 1.4l1.6 1.6a1 1 0 0 0 1.4 0l3.77-3.77a6 6 0 0 1-7.94 7.94l-6.91 6.91a2.12 2.12 0 0 1-3-3l6.91-6.91a6 6 0 0 1 7.94-7.94l-3.76 3.76z"/>
  </g>
</svg>
